<!-- icon666.com - MILLIONS vector ICONS FREE --><svg id="Capa_1" enable-background="new 0 0 511.33 511.33" viewBox="0 0 511.33 511.33" xmlns="http://www.w3.org/2000/svg"><g><g><path d="m470.635 59.13v306.87c0 45.13-28.84 84.83-71.76 98.78l-143.21 46.55-143.21-46.55c-42.92-13.95-71.76-53.65-71.76-98.78v-306.87l214.97-59.13z" fill="#7be6ff" style="fill: rgb(245, 244, 244);"></path><path d="m470.635 59.13v306.87c0 45.13-28.84 84.83-71.76 98.78l-143.21 46.55v-511.33z" fill="#64c8ff" style="fill: rgb(250, 244, 244);"></path><g><g><g><path d="m186.665 294.56h-80v-30h50v-30h-50v-90h80v30h-50v30h50z" fill="#fff" style="fill: rgb(34, 142, 195);"></path></g><g><path d="m246.665 174.56v30h50v90h-80v-30h50v-30h-50v-90h80v30z" fill="#fff" style="fill: rgb(34, 142, 195);"></path></g><g><path d="m406.665 294.56h-80v-150h30v120h50z" fill="#eeefff" style="fill: rgb(43, 107, 191);"></path></g></g><g><path d="m106.665 324.73h300v30h-300z" fill="#fff" style="fill: rgb(34, 142, 195);"></path></g></g></g><g fill="#eeefff"><path d="m255.665 144.56h41v30h-41z" fill="#eeefff" style="fill: rgb(43, 107, 191);"></path><path d="m296.665 204.56v90h-41v-30h11v-30h-11v-30z" fill="#eeefff" style="fill: rgb(43, 107, 191);"></path><path d="m255.665 324.73h151v30h-151z" fill="#eeefff" style="fill: rgb(43, 107, 191);"></path></g></g></svg>